<svg width="453" height="338" viewBox="0 0 453 338" fill="none" xmlns="http://www.w3.org/2000/svg">
<rect x="87" y="305" width="165" height="28" rx="14" fill="#DDDDDD"/>
<path d="M108.943 317.08C108.848 316.773 108.718 316.498 108.551 316.256C108.388 316.009 108.191 315.799 107.96 315.625C107.733 315.451 107.472 315.32 107.176 315.233C106.881 315.142 106.559 315.097 106.21 315.097C105.585 315.097 105.028 315.254 104.54 315.568C104.051 315.883 103.667 316.345 103.386 316.955C103.11 317.561 102.972 318.299 102.972 319.17C102.972 320.049 103.11 320.794 103.386 321.403C103.663 322.013 104.047 322.477 104.54 322.795C105.032 323.11 105.604 323.267 106.256 323.267C106.847 323.267 107.358 323.153 107.79 322.926C108.225 322.699 108.561 322.377 108.795 321.96C109.03 321.54 109.148 321.047 109.148 320.483L109.625 320.557H106.466V318.909H111.188V320.307C111.188 321.303 110.975 322.165 110.551 322.892C110.127 323.619 109.544 324.18 108.801 324.574C108.059 324.964 107.206 325.159 106.244 325.159C105.172 325.159 104.231 324.919 103.42 324.438C102.614 323.953 101.983 323.265 101.528 322.375C101.078 321.481 100.852 320.42 100.852 319.193C100.852 318.254 100.985 317.415 101.25 316.676C101.519 315.938 101.894 315.311 102.375 314.795C102.856 314.277 103.42 313.883 104.068 313.614C104.716 313.341 105.42 313.205 106.182 313.205C106.826 313.205 107.426 313.299 107.983 313.489C108.54 313.674 109.034 313.939 109.466 314.284C109.902 314.629 110.259 315.038 110.54 315.511C110.82 315.985 111.004 316.508 111.091 317.08H108.943ZM116.499 325.17C115.624 325.17 114.868 324.989 114.232 324.625C113.599 324.258 113.112 323.739 112.771 323.068C112.43 322.394 112.26 321.6 112.26 320.688C112.26 319.79 112.43 319.002 112.771 318.324C113.116 317.642 113.597 317.112 114.214 316.733C114.832 316.35 115.557 316.159 116.391 316.159C116.929 316.159 117.436 316.246 117.913 316.42C118.394 316.591 118.819 316.856 119.186 317.216C119.557 317.576 119.849 318.034 120.061 318.591C120.273 319.144 120.379 319.803 120.379 320.568V321.199H113.226V319.812H118.408C118.404 319.419 118.319 319.068 118.152 318.761C117.985 318.451 117.752 318.206 117.453 318.028C117.158 317.85 116.813 317.761 116.419 317.761C115.999 317.761 115.629 317.864 115.311 318.068C114.993 318.269 114.745 318.534 114.567 318.864C114.393 319.189 114.304 319.547 114.3 319.938V321.148C114.3 321.655 114.393 322.091 114.578 322.455C114.764 322.814 115.023 323.091 115.357 323.284C115.69 323.473 116.08 323.568 116.527 323.568C116.826 323.568 117.097 323.527 117.339 323.443C117.582 323.356 117.792 323.229 117.97 323.062C118.148 322.896 118.283 322.689 118.374 322.443L120.294 322.659C120.173 323.167 119.942 323.61 119.601 323.989C119.264 324.364 118.832 324.655 118.305 324.864C117.779 325.068 117.177 325.17 116.499 325.17ZM125.977 316.273V317.864H120.96V316.273H125.977ZM122.199 314.182H124.256V322.375C124.256 322.652 124.297 322.864 124.381 323.011C124.468 323.155 124.581 323.254 124.722 323.307C124.862 323.36 125.017 323.386 125.188 323.386C125.316 323.386 125.434 323.377 125.54 323.358C125.65 323.339 125.733 323.322 125.79 323.307L126.136 324.915C126.027 324.953 125.869 324.994 125.665 325.04C125.464 325.085 125.218 325.112 124.926 325.119C124.411 325.134 123.947 325.057 123.534 324.886C123.121 324.712 122.794 324.443 122.551 324.08C122.313 323.716 122.195 323.261 122.199 322.716V314.182ZM131.945 328.273C131.664 328.273 131.405 328.25 131.166 328.205C130.931 328.163 130.744 328.114 130.604 328.057L131.081 326.455C131.38 326.542 131.647 326.583 131.882 326.58C132.117 326.576 132.323 326.502 132.501 326.358C132.683 326.218 132.837 325.983 132.962 325.653L133.138 325.182L129.973 316.273H132.155L134.166 322.864H134.257L136.274 316.273H138.462L134.967 326.057C134.804 326.519 134.589 326.915 134.32 327.244C134.051 327.578 133.721 327.831 133.331 328.006C132.945 328.184 132.482 328.273 131.945 328.273ZM142.895 325.17C142.043 325.17 141.304 324.983 140.679 324.608C140.054 324.233 139.569 323.708 139.224 323.034C138.884 322.36 138.713 321.572 138.713 320.67C138.713 319.769 138.884 318.979 139.224 318.301C139.569 317.623 140.054 317.097 140.679 316.722C141.304 316.347 142.043 316.159 142.895 316.159C143.747 316.159 144.486 316.347 145.111 316.722C145.736 317.097 146.219 317.623 146.56 318.301C146.904 318.979 147.077 319.769 147.077 320.67C147.077 321.572 146.904 322.36 146.56 323.034C146.219 323.708 145.736 324.233 145.111 324.608C144.486 324.983 143.747 325.17 142.895 325.17ZM142.906 323.523C143.368 323.523 143.755 323.396 144.065 323.142C144.376 322.884 144.607 322.54 144.759 322.108C144.914 321.676 144.991 321.195 144.991 320.665C144.991 320.131 144.914 319.648 144.759 319.216C144.607 318.78 144.376 318.434 144.065 318.176C143.755 317.919 143.368 317.79 142.906 317.79C142.433 317.79 142.039 317.919 141.724 318.176C141.414 318.434 141.181 318.78 141.026 319.216C140.874 319.648 140.798 320.131 140.798 320.665C140.798 321.195 140.874 321.676 141.026 322.108C141.181 322.54 141.414 322.884 141.724 323.142C142.039 323.396 142.433 323.523 142.906 323.523ZM153.885 321.33V316.273H155.942V325H153.947V323.449H153.857C153.66 323.937 153.336 324.337 152.885 324.648C152.438 324.958 151.887 325.114 151.232 325.114C150.66 325.114 150.154 324.987 149.714 324.733C149.279 324.475 148.938 324.102 148.692 323.614C148.446 323.121 148.322 322.527 148.322 321.83V316.273H150.379V321.511C150.379 322.064 150.531 322.504 150.834 322.83C151.137 323.155 151.535 323.318 152.027 323.318C152.33 323.318 152.624 323.244 152.908 323.097C153.192 322.949 153.425 322.729 153.607 322.438C153.792 322.142 153.885 321.773 153.885 321.33ZM157.557 325V316.273H159.551V317.727H159.642C159.801 317.223 160.074 316.835 160.46 316.562C160.85 316.286 161.295 316.148 161.795 316.148C161.909 316.148 162.036 316.153 162.176 316.165C162.32 316.172 162.439 316.186 162.534 316.205V318.097C162.447 318.066 162.309 318.04 162.119 318.017C161.934 317.991 161.754 317.977 161.58 317.977C161.205 317.977 160.867 318.059 160.568 318.222C160.273 318.381 160.04 318.602 159.869 318.886C159.699 319.17 159.614 319.498 159.614 319.869V325H157.557ZM170.108 325.153C169.422 325.153 168.809 324.977 168.267 324.625C167.725 324.273 167.297 323.761 166.983 323.091C166.669 322.42 166.511 321.606 166.511 320.648C166.511 319.678 166.67 318.86 166.989 318.193C167.311 317.523 167.744 317.017 168.29 316.676C168.835 316.331 169.443 316.159 170.114 316.159C170.625 316.159 171.045 316.246 171.375 316.42C171.705 316.591 171.966 316.797 172.159 317.04C172.352 317.278 172.502 317.504 172.608 317.716H172.693V313.364H174.756V325H172.733V323.625H172.608C172.502 323.837 172.348 324.062 172.148 324.301C171.947 324.536 171.682 324.737 171.352 324.903C171.023 325.07 170.608 325.153 170.108 325.153ZM170.682 323.466C171.117 323.466 171.489 323.348 171.795 323.114C172.102 322.875 172.335 322.544 172.494 322.119C172.653 321.695 172.733 321.201 172.733 320.636C172.733 320.072 172.653 319.581 172.494 319.165C172.339 318.748 172.108 318.424 171.801 318.193C171.498 317.962 171.125 317.847 170.682 317.847C170.223 317.847 169.841 317.966 169.534 318.205C169.227 318.443 168.996 318.773 168.841 319.193C168.686 319.614 168.608 320.095 168.608 320.636C168.608 321.182 168.686 321.669 168.841 322.097C169 322.521 169.233 322.856 169.54 323.102C169.85 323.345 170.231 323.466 170.682 323.466ZM176.447 325V316.273H178.442V317.727H178.533C178.692 317.223 178.964 316.835 179.351 316.562C179.741 316.286 180.186 316.148 180.686 316.148C180.8 316.148 180.927 316.153 181.067 316.165C181.211 316.172 181.33 316.186 181.425 316.205V318.097C181.338 318.066 181.199 318.04 181.01 318.017C180.824 317.991 180.644 317.977 180.47 317.977C180.095 317.977 179.758 318.059 179.459 318.222C179.163 318.381 178.93 318.602 178.76 318.886C178.589 319.17 178.504 319.498 178.504 319.869V325H176.447ZM185.795 325.17C184.92 325.17 184.165 324.989 183.528 324.625C182.896 324.258 182.409 323.739 182.068 323.068C181.727 322.394 181.557 321.6 181.557 320.688C181.557 319.79 181.727 319.002 182.068 318.324C182.413 317.642 182.894 317.112 183.511 316.733C184.129 316.35 184.854 316.159 185.688 316.159C186.225 316.159 186.733 316.246 187.21 316.42C187.691 316.591 188.116 316.856 188.483 317.216C188.854 317.576 189.146 318.034 189.358 318.591C189.57 319.144 189.676 319.803 189.676 320.568V321.199H182.523V319.812H187.705C187.701 319.419 187.616 319.068 187.449 318.761C187.282 318.451 187.049 318.206 186.75 318.028C186.455 317.85 186.11 317.761 185.716 317.761C185.295 317.761 184.926 317.864 184.608 318.068C184.29 318.269 184.042 318.534 183.864 318.864C183.689 319.189 183.6 319.547 183.597 319.938V321.148C183.597 321.655 183.689 322.091 183.875 322.455C184.061 322.814 184.32 323.091 184.653 323.284C184.987 323.473 185.377 323.568 185.824 323.568C186.123 323.568 186.394 323.527 186.636 323.443C186.879 323.356 187.089 323.229 187.267 323.062C187.445 322.896 187.58 322.689 187.67 322.443L189.591 322.659C189.47 323.167 189.239 323.61 188.898 323.989C188.561 324.364 188.129 324.655 187.602 324.864C187.076 325.068 186.473 325.17 185.795 325.17ZM193.428 325.176C192.875 325.176 192.376 325.078 191.933 324.881C191.494 324.68 191.145 324.384 190.888 323.994C190.634 323.604 190.507 323.123 190.507 322.551C190.507 322.059 190.598 321.652 190.78 321.33C190.962 321.008 191.21 320.75 191.524 320.557C191.839 320.364 192.193 320.218 192.587 320.119C192.984 320.017 193.395 319.943 193.82 319.898C194.331 319.845 194.746 319.797 195.064 319.756C195.382 319.71 195.613 319.642 195.757 319.551C195.905 319.456 195.979 319.311 195.979 319.114V319.08C195.979 318.652 195.852 318.32 195.598 318.085C195.344 317.85 194.979 317.733 194.501 317.733C193.998 317.733 193.598 317.843 193.303 318.062C193.011 318.282 192.814 318.542 192.712 318.841L190.791 318.568C190.943 318.038 191.193 317.595 191.541 317.239C191.89 316.879 192.316 316.61 192.82 316.432C193.323 316.25 193.88 316.159 194.49 316.159C194.911 316.159 195.329 316.208 195.746 316.307C196.162 316.405 196.543 316.568 196.888 316.795C197.232 317.019 197.509 317.324 197.717 317.71C197.929 318.097 198.036 318.58 198.036 319.159V325H196.058V323.801H195.99C195.865 324.044 195.689 324.271 195.462 324.483C195.238 324.691 194.956 324.86 194.615 324.989C194.278 325.114 193.882 325.176 193.428 325.176ZM193.962 323.665C194.375 323.665 194.732 323.583 195.036 323.42C195.339 323.254 195.571 323.034 195.734 322.761C195.901 322.489 195.984 322.191 195.984 321.869V320.841C195.92 320.894 195.81 320.943 195.655 320.989C195.503 321.034 195.333 321.074 195.143 321.108C194.954 321.142 194.767 321.172 194.581 321.199C194.395 321.225 194.234 321.248 194.098 321.267C193.791 321.309 193.517 321.377 193.274 321.472C193.032 321.566 192.84 321.699 192.7 321.869C192.56 322.036 192.49 322.252 192.49 322.517C192.49 322.896 192.628 323.182 192.905 323.375C193.181 323.568 193.534 323.665 193.962 323.665ZM199.604 325V316.273H201.57V317.756H201.672C201.854 317.256 202.155 316.866 202.575 316.585C202.996 316.301 203.498 316.159 204.081 316.159C204.672 316.159 205.17 316.303 205.575 316.591C205.984 316.875 206.272 317.263 206.439 317.756H206.53C206.723 317.271 207.049 316.884 207.507 316.597C207.969 316.305 208.517 316.159 209.149 316.159C209.952 316.159 210.607 316.413 211.115 316.92C211.623 317.428 211.876 318.169 211.876 319.142V325H209.814V319.46C209.814 318.919 209.67 318.523 209.382 318.273C209.094 318.019 208.742 317.892 208.325 317.892C207.829 317.892 207.441 318.047 207.161 318.358C206.884 318.665 206.746 319.064 206.746 319.557V325H204.729V319.375C204.729 318.924 204.592 318.564 204.32 318.295C204.051 318.027 203.698 317.892 203.263 317.892C202.967 317.892 202.698 317.968 202.456 318.119C202.214 318.267 202.02 318.477 201.876 318.75C201.732 319.019 201.661 319.333 201.661 319.693V325H199.604ZM216.932 316.273H218.989V325.5C218.989 326.129 218.869 326.648 218.631 327.057C218.392 327.466 218.047 327.771 217.597 327.972C217.146 328.172 216.598 328.273 215.955 328.273C215.879 328.273 215.809 328.271 215.744 328.267C215.68 328.267 215.61 328.265 215.534 328.261V326.585C215.591 326.589 215.642 326.591 215.688 326.591C215.733 326.595 215.78 326.597 215.83 326.597C216.223 326.597 216.506 326.5 216.676 326.307C216.847 326.117 216.932 325.839 216.932 325.472V316.273ZM217.955 315.034C217.625 315.034 217.343 314.926 217.108 314.71C216.877 314.491 216.761 314.227 216.761 313.92C216.761 313.61 216.877 313.347 217.108 313.131C217.343 312.911 217.625 312.801 217.955 312.801C218.28 312.801 218.559 312.911 218.79 313.131C219.025 313.347 219.142 313.61 219.142 313.92C219.142 314.227 219.025 314.491 218.79 314.71C218.559 314.926 218.28 315.034 217.955 315.034ZM224.411 325.17C223.558 325.17 222.82 324.983 222.195 324.608C221.57 324.233 221.085 323.708 220.74 323.034C220.399 322.36 220.229 321.572 220.229 320.67C220.229 319.769 220.399 318.979 220.74 318.301C221.085 317.623 221.57 317.097 222.195 316.722C222.82 316.347 223.558 316.159 224.411 316.159C225.263 316.159 226.001 316.347 226.626 316.722C227.251 317.097 227.734 317.623 228.075 318.301C228.42 318.979 228.592 319.769 228.592 320.67C228.592 321.572 228.42 322.36 228.075 323.034C227.734 323.708 227.251 324.233 226.626 324.608C226.001 324.983 225.263 325.17 224.411 325.17ZM224.422 323.523C224.884 323.523 225.27 323.396 225.581 323.142C225.892 322.884 226.123 322.54 226.274 322.108C226.429 321.676 226.507 321.195 226.507 320.665C226.507 320.131 226.429 319.648 226.274 319.216C226.123 318.78 225.892 318.434 225.581 318.176C225.27 317.919 224.884 317.79 224.422 317.79C223.948 317.79 223.554 317.919 223.24 318.176C222.929 318.434 222.696 318.78 222.541 319.216C222.39 319.648 222.314 320.131 222.314 320.665C222.314 321.195 222.39 321.676 222.541 322.108C222.696 322.54 222.929 322.884 223.24 323.142C223.554 323.396 223.948 323.523 224.422 323.523ZM229.929 325V313.364H231.986V317.716H232.071C232.177 317.504 232.327 317.278 232.52 317.04C232.713 316.797 232.974 316.591 233.304 316.42C233.634 316.246 234.054 316.159 234.565 316.159C235.24 316.159 235.848 316.331 236.389 316.676C236.935 317.017 237.366 317.523 237.685 318.193C238.007 318.86 238.168 319.678 238.168 320.648C238.168 321.606 238.01 322.42 237.696 323.091C237.382 323.761 236.954 324.273 236.412 324.625C235.87 324.977 235.257 325.153 234.571 325.153C234.071 325.153 233.656 325.07 233.327 324.903C232.997 324.737 232.732 324.536 232.531 324.301C232.334 324.062 232.181 323.837 232.071 323.625H231.952V325H229.929ZM231.946 320.636C231.946 321.201 232.026 321.695 232.185 322.119C232.348 322.544 232.58 322.875 232.884 323.114C233.19 323.348 233.562 323.466 233.997 323.466C234.452 323.466 234.832 323.345 235.139 323.102C235.446 322.856 235.677 322.521 235.832 322.097C235.991 321.669 236.071 321.182 236.071 320.636C236.071 320.095 235.993 319.614 235.838 319.193C235.683 318.773 235.452 318.443 235.145 318.205C234.838 317.966 234.455 317.847 233.997 317.847C233.558 317.847 233.185 317.962 232.878 318.193C232.571 318.424 232.338 318.748 232.179 319.165C232.024 319.581 231.946 320.072 231.946 320.636Z" fill="#303030"/>
<path d="M222.689 78.7035C227.809 70.1641 225.07 58.9527 215.874 55.1349C197.092 47.3373 176.576 44.2823 156.159 46.378C129.735 49.0905 104.898 60.286 85.3664 78.2894C65.8343 96.2929 52.6565 120.137 47.8042 146.253C44.0553 166.431 45.432 187.128 51.6766 206.482C54.734 215.958 65.6855 219.599 74.613 215.191C83.5405 210.782 86.9979 199.978 84.5221 190.334C81.3932 178.146 80.9295 165.352 83.2541 152.839C86.6838 134.38 95.9981 117.527 109.804 104.802C123.609 92.0765 141.164 84.1633 159.841 82.2461C172.501 80.9466 185.215 82.449 197.108 86.5586C206.519 89.8104 217.568 87.2429 222.689 78.7035Z" fill="#EB9241"/>
<path d="M206.556 266.614C210.146 275.902 220.674 280.631 229.337 275.723C250.685 263.63 268.057 245.346 279.027 223.093C292.669 195.417 295.409 163.624 286.704 134.021C277.998 104.419 258.483 79.1706 232.031 63.2855C210.761 50.5132 186.257 44.5445 161.76 45.9325C151.82 46.4958 145.528 56.1716 147.537 65.9235C149.547 75.6754 159.126 81.751 169.083 81.7931C184.615 81.8587 199.964 86.0877 213.468 94.1968C232.165 105.425 245.959 123.271 252.112 144.194C258.265 165.117 256.328 187.589 246.686 207.151C239.721 221.28 229.105 233.144 216.081 241.608C207.732 247.033 202.967 257.327 206.556 266.614Z" fill="#48A9A6"/>
<path d="M222.689 78.7035C227.809 70.1641 225.07 58.9527 215.874 55.1349C197.092 47.3373 176.576 44.2822 156.159 46.378C129.735 49.0905 104.898 60.2859 85.3664 78.2894C65.8343 96.2929 52.6564 120.136 47.8042 146.253C43.0886 171.634 58.0636 147.619 69.7069 168.108C70.2773 169.111 71.5569 169.511 72.5552 168.931C73.4625 168.404 73.7963 167.252 73.3478 166.303C66.8546 152.573 79.9491 170.629 83.2541 152.839C86.6837 134.38 95.9981 117.527 109.804 104.802C123.609 92.0764 141.164 84.1633 159.841 82.246C172.501 80.9465 185.215 82.4489 197.108 86.5585C206.519 89.8103 217.568 87.2429 222.689 78.7035Z" fill="#EB9241"/>
<g clip-path="url(#clip0_178_2250)">
<rect x="194.687" y="57.9222" width="23" height="23" rx="11.5" fill="#EB9241"/>
<path d="M205.516 74.9222V68.2342C205.516 67.9889 205.516 67.7382 205.516 67.4822C205.527 67.2156 205.537 66.9436 205.548 66.6662C205.185 66.9969 204.78 67.2849 204.332 67.5302C203.884 67.7756 203.425 67.9462 202.956 68.0422L202.668 66.1862C202.913 66.1649 203.185 66.0956 203.484 65.9782C203.793 65.8502 204.103 65.7009 204.412 65.5302C204.732 65.3489 205.02 65.1622 205.276 64.9702C205.543 64.7676 205.745 64.5649 205.884 64.3622H207.676V74.9222H205.516Z" fill="white"/>
</g>
<rect x="193.187" y="56.4222" width="26" height="26" rx="13" stroke="#CF8038" stroke-width="3"/>
<rect x="305" y="155.026" width="148" height="28" rx="14" fill="#D0F1EB"/>
<path d="M325.472 166.589C325.419 166.092 325.195 165.706 324.801 165.43C324.411 165.153 323.903 165.015 323.278 165.015C322.839 165.015 322.462 165.081 322.148 165.214C321.833 165.346 321.593 165.526 321.426 165.753C321.259 165.981 321.174 166.24 321.17 166.532C321.17 166.774 321.225 166.985 321.335 167.163C321.449 167.341 321.602 167.492 321.795 167.617C321.989 167.738 322.203 167.841 322.438 167.924C322.672 168.007 322.909 168.077 323.148 168.134L324.239 168.407C324.678 168.509 325.1 168.647 325.506 168.822C325.915 168.996 326.28 169.216 326.602 169.481C326.928 169.746 327.186 170.066 327.375 170.441C327.564 170.816 327.659 171.255 327.659 171.759C327.659 172.441 327.485 173.041 327.136 173.56C326.788 174.075 326.284 174.479 325.625 174.771C324.97 175.058 324.176 175.202 323.244 175.202C322.339 175.202 321.553 175.062 320.886 174.782C320.223 174.502 319.705 174.092 319.33 173.555C318.958 173.017 318.758 172.361 318.727 171.589H320.801C320.831 171.994 320.956 172.331 321.176 172.6C321.396 172.869 321.682 173.07 322.034 173.202C322.39 173.335 322.788 173.401 323.227 173.401C323.686 173.401 324.087 173.333 324.432 173.197C324.78 173.056 325.053 172.863 325.25 172.617C325.447 172.367 325.547 172.075 325.551 171.742C325.547 171.439 325.458 171.189 325.284 170.992C325.11 170.791 324.866 170.625 324.551 170.492C324.241 170.356 323.877 170.235 323.46 170.128L322.136 169.788C321.178 169.541 320.42 169.168 319.864 168.668C319.311 168.164 319.034 167.496 319.034 166.663C319.034 165.977 319.22 165.377 319.591 164.861C319.966 164.346 320.475 163.947 321.119 163.663C321.763 163.375 322.492 163.231 323.307 163.231C324.133 163.231 324.856 163.375 325.477 163.663C326.102 163.947 326.593 164.342 326.949 164.85C327.305 165.354 327.489 165.933 327.5 166.589H325.472ZM332.811 175.197C331.936 175.197 331.18 175.015 330.544 174.651C329.911 174.284 329.425 173.765 329.084 173.094C328.743 172.42 328.572 171.627 328.572 170.714C328.572 169.816 328.743 169.028 329.084 168.35C329.429 167.668 329.91 167.138 330.527 166.759C331.144 166.377 331.87 166.185 332.703 166.185C333.241 166.185 333.749 166.272 334.226 166.447C334.707 166.617 335.131 166.882 335.499 167.242C335.87 167.602 336.161 168.06 336.374 168.617C336.586 169.17 336.692 169.829 336.692 170.594V171.225H329.538V169.839H334.72C334.716 169.445 334.631 169.094 334.464 168.788C334.298 168.477 334.065 168.233 333.766 168.055C333.47 167.877 333.125 167.788 332.732 167.788C332.311 167.788 331.942 167.89 331.624 168.094C331.305 168.295 331.057 168.56 330.879 168.89C330.705 169.216 330.616 169.574 330.612 169.964V171.174C330.612 171.681 330.705 172.117 330.891 172.481C331.076 172.841 331.336 173.117 331.669 173.31C332.002 173.5 332.393 173.594 332.839 173.594C333.139 173.594 333.41 173.553 333.652 173.469C333.894 173.382 334.105 173.255 334.283 173.089C334.461 172.922 334.595 172.716 334.686 172.469L336.607 172.685C336.485 173.193 336.254 173.636 335.913 174.015C335.576 174.39 335.144 174.681 334.618 174.89C334.091 175.094 333.489 175.197 332.811 175.197ZM339.989 169.913V175.026H337.932V166.299H339.898V167.782H340C340.201 167.293 340.521 166.905 340.96 166.617C341.403 166.329 341.951 166.185 342.602 166.185C343.205 166.185 343.729 166.314 344.176 166.572C344.627 166.829 344.975 167.202 345.222 167.691C345.472 168.18 345.595 168.772 345.591 169.469V175.026H343.534V169.788C343.534 169.204 343.383 168.748 343.08 168.418C342.78 168.089 342.366 167.924 341.835 167.924C341.475 167.924 341.155 168.003 340.875 168.163C340.598 168.318 340.381 168.543 340.222 168.839C340.066 169.134 339.989 169.492 339.989 169.913ZM350.42 175.18C349.735 175.18 349.121 175.003 348.58 174.651C348.038 174.299 347.61 173.788 347.295 173.117C346.981 172.447 346.824 171.632 346.824 170.674C346.824 169.704 346.983 168.886 347.301 168.219C347.623 167.549 348.057 167.043 348.602 166.702C349.148 166.358 349.756 166.185 350.426 166.185C350.938 166.185 351.358 166.272 351.688 166.447C352.017 166.617 352.278 166.824 352.472 167.066C352.665 167.305 352.814 167.53 352.92 167.742H353.006V163.39H355.068V175.026H353.045V173.651H352.92C352.814 173.863 352.661 174.089 352.46 174.327C352.259 174.562 351.994 174.763 351.665 174.93C351.335 175.096 350.92 175.18 350.42 175.18ZM350.994 173.492C351.43 173.492 351.801 173.375 352.108 173.14C352.415 172.901 352.648 172.57 352.807 172.146C352.966 171.721 353.045 171.227 353.045 170.663C353.045 170.098 352.966 169.608 352.807 169.191C352.652 168.774 352.42 168.45 352.114 168.219C351.811 167.988 351.438 167.873 350.994 167.873C350.536 167.873 350.153 167.992 349.847 168.231C349.54 168.469 349.309 168.799 349.153 169.219C348.998 169.64 348.92 170.121 348.92 170.663C348.92 171.208 348.998 171.695 349.153 172.123C349.313 172.547 349.545 172.882 349.852 173.128C350.163 173.371 350.544 173.492 350.994 173.492ZM362.74 175.202C362.187 175.202 361.689 175.104 361.246 174.907C360.806 174.706 360.458 174.411 360.2 174.021C359.946 173.63 359.82 173.149 359.82 172.577C359.82 172.085 359.911 171.678 360.092 171.356C360.274 171.034 360.522 170.776 360.837 170.583C361.151 170.39 361.505 170.244 361.899 170.146C362.297 170.043 362.708 169.969 363.132 169.924C363.643 169.871 364.058 169.824 364.376 169.782C364.695 169.736 364.926 169.668 365.07 169.577C365.217 169.483 365.291 169.337 365.291 169.14V169.106C365.291 168.678 365.164 168.346 364.911 168.111C364.657 167.877 364.291 167.759 363.814 167.759C363.31 167.759 362.911 167.869 362.615 168.089C362.323 168.308 362.126 168.568 362.024 168.867L360.104 168.594C360.255 168.064 360.505 167.621 360.854 167.265C361.202 166.905 361.628 166.636 362.132 166.458C362.636 166.276 363.193 166.185 363.803 166.185C364.223 166.185 364.642 166.235 365.058 166.333C365.475 166.431 365.856 166.594 366.2 166.822C366.545 167.045 366.821 167.35 367.03 167.736C367.242 168.123 367.348 168.606 367.348 169.185V175.026H365.371V173.827H365.303C365.178 174.07 365.001 174.297 364.774 174.509C364.551 174.717 364.268 174.886 363.928 175.015C363.59 175.14 363.195 175.202 362.74 175.202ZM363.274 173.691C363.687 173.691 364.045 173.61 364.348 173.447C364.651 173.28 364.884 173.06 365.047 172.788C365.214 172.515 365.297 172.217 365.297 171.896V170.867C365.232 170.92 365.123 170.969 364.967 171.015C364.816 171.06 364.645 171.1 364.456 171.134C364.267 171.168 364.079 171.199 363.893 171.225C363.708 171.252 363.547 171.274 363.411 171.293C363.104 171.335 362.829 171.403 362.587 171.498C362.344 171.592 362.153 171.725 362.013 171.896C361.873 172.062 361.803 172.278 361.803 172.543C361.803 172.922 361.941 173.208 362.217 173.401C362.494 173.594 362.846 173.691 363.274 173.691ZM368.916 178.299V166.299H370.939V167.742H371.058C371.164 167.53 371.314 167.305 371.507 167.066C371.7 166.824 371.962 166.617 372.291 166.447C372.621 166.272 373.041 166.185 373.553 166.185C374.227 166.185 374.835 166.358 375.376 166.702C375.922 167.043 376.354 167.549 376.672 168.219C376.994 168.886 377.155 169.704 377.155 170.674C377.155 171.632 376.998 172.447 376.683 173.117C376.369 173.788 375.941 174.299 375.399 174.651C374.857 175.003 374.244 175.18 373.558 175.18C373.058 175.18 372.643 175.096 372.314 174.93C371.984 174.763 371.719 174.562 371.518 174.327C371.321 174.089 371.168 173.863 371.058 173.651H370.973V178.299H368.916ZM370.933 170.663C370.933 171.227 371.013 171.721 371.172 172.146C371.335 172.57 371.568 172.901 371.871 173.14C372.178 173.375 372.549 173.492 372.984 173.492C373.439 173.492 373.82 173.371 374.126 173.128C374.433 172.882 374.664 172.547 374.82 172.123C374.979 171.695 375.058 171.208 375.058 170.663C375.058 170.121 374.981 169.64 374.825 169.219C374.67 168.799 374.439 168.469 374.132 168.231C373.825 167.992 373.443 167.873 372.984 167.873C372.545 167.873 372.172 167.988 371.865 168.219C371.558 168.45 371.325 168.774 371.166 169.191C371.011 169.608 370.933 170.098 370.933 170.663ZM378.416 178.299V166.299H380.439V167.742H380.558C380.664 167.53 380.814 167.305 381.007 167.066C381.2 166.824 381.462 166.617 381.791 166.447C382.121 166.272 382.541 166.185 383.053 166.185C383.727 166.185 384.335 166.358 384.876 166.702C385.422 167.043 385.854 167.549 386.172 168.219C386.494 168.886 386.655 169.704 386.655 170.674C386.655 171.632 386.498 172.447 386.183 173.117C385.869 173.788 385.441 174.299 384.899 174.651C384.357 175.003 383.744 175.18 383.058 175.18C382.558 175.18 382.143 175.096 381.814 174.93C381.484 174.763 381.219 174.562 381.018 174.327C380.821 174.089 380.668 173.863 380.558 173.651H380.473V178.299H378.416ZM380.433 170.663C380.433 171.227 380.513 171.721 380.672 172.146C380.835 172.57 381.068 172.901 381.371 173.14C381.678 173.375 382.049 173.492 382.484 173.492C382.939 173.492 383.32 173.371 383.626 173.128C383.933 172.882 384.164 172.547 384.32 172.123C384.479 171.695 384.558 171.208 384.558 170.663C384.558 170.121 384.481 169.64 384.325 169.219C384.17 168.799 383.939 168.469 383.632 168.231C383.325 167.992 382.943 167.873 382.484 167.873C382.045 167.873 381.672 167.988 381.365 168.219C381.058 168.45 380.825 168.774 380.666 169.191C380.511 169.608 380.433 170.098 380.433 170.663ZM389.973 163.39V175.026H387.916V163.39H389.973ZM391.588 175.026V166.299H393.645V175.026H391.588ZM392.622 165.06C392.296 165.06 392.016 164.952 391.781 164.736C391.546 164.517 391.429 164.253 391.429 163.947C391.429 163.636 391.546 163.373 391.781 163.157C392.016 162.937 392.296 162.827 392.622 162.827C392.952 162.827 393.232 162.937 393.463 163.157C393.698 163.373 393.815 163.636 393.815 163.947C393.815 164.253 393.698 164.517 393.463 164.736C393.232 164.952 392.952 165.06 392.622 165.06ZM399.067 175.197C398.196 175.197 397.447 175.005 396.822 174.623C396.201 174.24 395.722 173.712 395.385 173.038C395.052 172.36 394.885 171.579 394.885 170.697C394.885 169.81 395.055 169.028 395.396 168.35C395.737 167.668 396.218 167.138 396.839 166.759C397.464 166.377 398.203 166.185 399.055 166.185C399.764 166.185 400.391 166.316 400.936 166.577C401.485 166.835 401.923 167.2 402.249 167.674C402.574 168.144 402.76 168.693 402.805 169.322H400.839C400.76 168.901 400.571 168.551 400.271 168.271C399.976 167.986 399.58 167.844 399.084 167.844C398.663 167.844 398.294 167.958 397.976 168.185C397.658 168.409 397.41 168.731 397.232 169.151C397.057 169.572 396.97 170.075 396.97 170.663C396.97 171.257 397.057 171.769 397.232 172.197C397.406 172.621 397.65 172.949 397.964 173.18C398.283 173.407 398.656 173.521 399.084 173.521C399.387 173.521 399.658 173.464 399.896 173.35C400.139 173.233 400.341 173.064 400.504 172.844C400.667 172.625 400.779 172.358 400.839 172.043H402.805C402.756 172.661 402.574 173.208 402.26 173.685C401.946 174.159 401.518 174.53 400.976 174.799C400.434 175.064 399.798 175.197 399.067 175.197ZM406.506 175.202C405.953 175.202 405.455 175.104 405.011 174.907C404.572 174.706 404.223 174.411 403.966 174.021C403.712 173.63 403.585 173.149 403.585 172.577C403.585 172.085 403.676 171.678 403.858 171.356C404.04 171.034 404.288 170.776 404.602 170.583C404.917 170.39 405.271 170.244 405.665 170.146C406.063 170.043 406.473 169.969 406.898 169.924C407.409 169.871 407.824 169.824 408.142 169.782C408.46 169.736 408.691 169.668 408.835 169.577C408.983 169.483 409.057 169.337 409.057 169.14V169.106C409.057 168.678 408.93 168.346 408.676 168.111C408.422 167.877 408.057 167.759 407.58 167.759C407.076 167.759 406.676 167.869 406.381 168.089C406.089 168.308 405.892 168.568 405.79 168.867L403.869 168.594C404.021 168.064 404.271 167.621 404.619 167.265C404.968 166.905 405.394 166.636 405.898 166.458C406.402 166.276 406.958 166.185 407.568 166.185C407.989 166.185 408.407 166.235 408.824 166.333C409.241 166.431 409.621 166.594 409.966 166.822C410.311 167.045 410.587 167.35 410.795 167.736C411.008 168.123 411.114 168.606 411.114 169.185V175.026H409.136V173.827H409.068C408.943 174.07 408.767 174.297 408.54 174.509C408.316 174.717 408.034 174.886 407.693 175.015C407.356 175.14 406.96 175.202 406.506 175.202ZM407.04 173.691C407.453 173.691 407.811 173.61 408.114 173.447C408.417 173.28 408.65 173.06 408.812 172.788C408.979 172.515 409.062 172.217 409.062 171.896V170.867C408.998 170.92 408.888 170.969 408.733 171.015C408.581 171.06 408.411 171.1 408.222 171.134C408.032 171.168 407.845 171.199 407.659 171.225C407.473 171.252 407.313 171.274 407.176 171.293C406.869 171.335 406.595 171.403 406.352 171.498C406.11 171.592 405.919 171.725 405.778 171.896C405.638 172.062 405.568 172.278 405.568 172.543C405.568 172.922 405.706 173.208 405.983 173.401C406.259 173.594 406.612 173.691 407.04 173.691ZM417.04 166.299V167.89H412.023V166.299H417.04ZM413.261 164.208H415.318V172.401C415.318 172.678 415.36 172.89 415.443 173.038C415.53 173.181 415.644 173.28 415.784 173.333C415.924 173.386 416.08 173.413 416.25 173.413C416.379 173.413 416.496 173.403 416.602 173.384C416.712 173.365 416.795 173.348 416.852 173.333L417.199 174.941C417.089 174.979 416.932 175.021 416.727 175.066C416.527 175.111 416.28 175.138 415.989 175.146C415.473 175.161 415.009 175.083 414.597 174.913C414.184 174.738 413.856 174.469 413.614 174.106C413.375 173.742 413.258 173.288 413.261 172.742V164.208ZM418.26 175.026V166.299H420.317V175.026H418.26ZM419.294 165.06C418.968 165.06 418.688 164.952 418.453 164.736C418.218 164.517 418.101 164.253 418.101 163.947C418.101 163.636 418.218 163.373 418.453 163.157C418.688 162.937 418.968 162.827 419.294 162.827C419.624 162.827 419.904 162.937 420.135 163.157C420.37 163.373 420.487 163.636 420.487 163.947C420.487 164.253 420.37 164.517 420.135 164.736C419.904 164.952 419.624 165.06 419.294 165.06ZM425.739 175.197C424.886 175.197 424.148 175.009 423.523 174.634C422.898 174.259 422.413 173.735 422.068 173.06C421.727 172.386 421.557 171.598 421.557 170.697C421.557 169.795 421.727 169.005 422.068 168.327C422.413 167.649 422.898 167.123 423.523 166.748C424.148 166.373 424.886 166.185 425.739 166.185C426.591 166.185 427.33 166.373 427.955 166.748C428.58 167.123 429.063 167.649 429.403 168.327C429.748 169.005 429.92 169.795 429.92 170.697C429.92 171.598 429.748 172.386 429.403 173.06C429.063 173.735 428.58 174.259 427.955 174.634C427.33 175.009 426.591 175.197 425.739 175.197ZM425.75 173.549C426.212 173.549 426.598 173.422 426.909 173.168C427.22 172.911 427.451 172.566 427.602 172.134C427.758 171.702 427.835 171.221 427.835 170.691C427.835 170.157 427.758 169.674 427.602 169.242C427.451 168.806 427.22 168.46 426.909 168.202C426.598 167.945 426.212 167.816 425.75 167.816C425.277 167.816 424.883 167.945 424.568 168.202C424.258 168.46 424.025 168.806 423.869 169.242C423.718 169.674 423.642 170.157 423.642 170.691C423.642 171.221 423.718 171.702 423.869 172.134C424.025 172.566 424.258 172.911 424.568 173.168C424.883 173.422 425.277 173.549 425.75 173.549ZM433.223 169.913V175.026H431.166V166.299H433.132V167.782H433.234C433.435 167.293 433.755 166.905 434.195 166.617C434.638 166.329 435.185 166.185 435.837 166.185C436.439 166.185 436.964 166.314 437.411 166.572C437.861 166.829 438.21 167.202 438.456 167.691C438.706 168.18 438.829 168.772 438.825 169.469V175.026H436.768V169.788C436.768 169.204 436.617 168.748 436.314 168.418C436.015 168.089 435.6 167.924 435.07 167.924C434.71 167.924 434.39 168.003 434.109 168.163C433.833 168.318 433.615 168.543 433.456 168.839C433.301 169.134 433.223 169.492 433.223 169.913Z" fill="#48A9A6"/>
<rect x="125" y="6" width="89" height="28" rx="14" fill="#F1E0D0"/>
<path d="M139.148 26V14.3636H143.602C144.443 14.3636 145.142 14.4962 145.699 14.7614C146.259 15.0227 146.678 15.3807 146.955 15.8352C147.235 16.2898 147.375 16.8049 147.375 17.3807C147.375 17.8542 147.284 18.2595 147.102 18.5966C146.92 18.9299 146.676 19.2008 146.369 19.4091C146.062 19.6174 145.72 19.767 145.341 19.858V19.9716C145.754 19.9943 146.15 20.1212 146.528 20.3523C146.911 20.5795 147.223 20.9015 147.466 21.3182C147.708 21.7348 147.83 22.2386 147.83 22.8295C147.83 23.4318 147.684 23.9735 147.392 24.4545C147.1 24.9318 146.661 25.3087 146.074 25.5852C145.487 25.8617 144.748 26 143.858 26H139.148ZM141.256 24.2386H143.523C144.288 24.2386 144.839 24.0928 145.176 23.8011C145.517 23.5057 145.688 23.1269 145.688 22.6648C145.688 22.3201 145.602 22.0095 145.432 21.733C145.261 21.4527 145.019 21.233 144.705 21.0739C144.39 20.911 144.015 20.8295 143.58 20.8295H141.256V24.2386ZM141.256 19.3125H143.341C143.705 19.3125 144.032 19.2462 144.324 19.1136C144.616 18.9773 144.845 18.786 145.011 18.5398C145.182 18.2898 145.267 17.9943 145.267 17.6534C145.267 17.2027 145.108 16.8314 144.79 16.5398C144.475 16.2481 144.008 16.1023 143.386 16.1023H141.256V19.3125ZM154.635 22.3295V17.2727H156.692V26H154.697V24.4489H154.607C154.41 24.9375 154.086 25.3371 153.635 25.6477C153.188 25.9583 152.637 26.1136 151.982 26.1136C151.41 26.1136 150.904 25.9867 150.464 25.733C150.029 25.4754 149.688 25.1023 149.442 24.6136C149.196 24.1212 149.072 23.5265 149.072 22.8295V17.2727H151.129V22.5114C151.129 23.0644 151.281 23.5038 151.584 23.8295C151.887 24.1553 152.285 24.3182 152.777 24.3182C153.08 24.3182 153.374 24.2443 153.658 24.0966C153.942 23.9489 154.175 23.7292 154.357 23.4375C154.542 23.142 154.635 22.7727 154.635 22.3295ZM158.307 26V17.2727H160.364V26H158.307ZM159.341 16.0341C159.015 16.0341 158.735 15.9261 158.5 15.7102C158.265 15.4905 158.148 15.2273 158.148 14.9205C158.148 14.6098 158.265 14.3466 158.5 14.1307C158.735 13.911 159.015 13.8011 159.341 13.8011C159.67 13.8011 159.951 13.911 160.182 14.1307C160.417 14.3466 160.534 14.6098 160.534 14.9205C160.534 15.2273 160.417 15.4905 160.182 15.7102C159.951 15.9261 159.67 16.0341 159.341 16.0341ZM164.036 14.3636V26H161.979V14.3636H164.036ZM168.889 26.1534C168.204 26.1534 167.59 25.9773 167.048 25.625C166.507 25.2727 166.079 24.7614 165.764 24.0909C165.45 23.4205 165.293 22.6061 165.293 21.6477C165.293 20.678 165.452 19.8598 165.77 19.1932C166.092 18.5227 166.526 18.017 167.071 17.6761C167.616 17.3314 168.224 17.1591 168.895 17.1591C169.406 17.1591 169.827 17.2462 170.156 17.4205C170.486 17.5909 170.747 17.7973 170.94 18.0398C171.134 18.2784 171.283 18.5038 171.389 18.7159H171.474V14.3636H173.537V26H171.514V24.625H171.389C171.283 24.8371 171.13 25.0625 170.929 25.3011C170.728 25.536 170.463 25.7367 170.134 25.9034C169.804 26.0701 169.389 26.1534 168.889 26.1534ZM169.463 24.4659C169.899 24.4659 170.27 24.3485 170.577 24.1136C170.884 23.875 171.116 23.5436 171.276 23.1193C171.435 22.6951 171.514 22.2008 171.514 21.6364C171.514 21.072 171.435 20.5814 171.276 20.1648C171.12 19.7481 170.889 19.4242 170.582 19.1932C170.279 18.9621 169.906 18.8466 169.463 18.8466C169.005 18.8466 168.622 18.9659 168.315 19.2045C168.009 19.4432 167.777 19.7727 167.622 20.1932C167.467 20.6136 167.389 21.0947 167.389 21.6364C167.389 22.1818 167.467 22.6686 167.622 23.0966C167.781 23.5208 168.014 23.8561 168.321 24.1023C168.632 24.3447 169.012 24.4659 169.463 24.4659ZM188.749 18.2898H186.624C186.563 17.9413 186.451 17.6326 186.288 17.3636C186.125 17.0909 185.923 16.8598 185.68 16.6705C185.438 16.4811 185.161 16.339 184.851 16.2443C184.544 16.1458 184.213 16.0966 183.857 16.0966C183.224 16.0966 182.663 16.2557 182.175 16.5739C181.686 16.8883 181.304 17.3504 181.027 17.9602C180.75 18.5663 180.612 19.3068 180.612 20.1818C180.612 21.072 180.75 21.822 181.027 22.4318C181.307 23.0379 181.69 23.4962 182.175 23.8068C182.663 24.1136 183.222 24.267 183.851 24.267C184.199 24.267 184.525 24.2216 184.828 24.1307C185.135 24.036 185.41 23.8977 185.652 23.7159C185.898 23.5341 186.105 23.3106 186.271 23.0455C186.442 22.7803 186.559 22.4773 186.624 22.1364L188.749 22.1477C188.669 22.7008 188.497 23.2197 188.232 23.7045C187.97 24.1894 187.627 24.6174 187.203 24.9886C186.779 25.3561 186.283 25.6439 185.714 25.8523C185.146 26.0568 184.516 26.1591 183.822 26.1591C182.8 26.1591 181.887 25.9223 181.084 25.4489C180.281 24.9754 179.648 24.2917 179.186 23.3977C178.724 22.5038 178.493 21.4318 178.493 20.1818C178.493 18.928 178.726 17.8561 179.192 16.9659C179.658 16.072 180.292 15.3883 181.095 14.9148C181.898 14.4413 182.807 14.2045 183.822 14.2045C184.47 14.2045 185.072 14.2955 185.629 14.4773C186.186 14.6591 186.682 14.9261 187.118 15.2784C187.554 15.6269 187.911 16.0549 188.192 16.5625C188.476 17.0663 188.661 17.642 188.749 18.2898ZM191.736 14.3636L194.764 23.5227H194.884L197.906 14.3636H200.224L196.122 26H193.52L189.423 14.3636H191.736Z" fill="#EE7A10"/>
<path d="M66.905 194.204C57.2462 196.622 51.2554 206.487 55.0581 215.688C62.1961 232.961 73.2099 248.456 87.3408 260.927C105.999 277.393 129.213 287.812 153.916 290.807C178.62 293.801 203.651 289.232 225.703 277.701C242.405 268.968 256.802 256.554 267.861 241.487C273.752 233.461 270.292 222.451 261.491 217.795C252.69 213.139 241.907 216.662 235.539 224.316C228.231 233.098 219.225 240.4 208.996 245.749C193.409 253.899 175.717 257.129 158.256 255.012C140.795 252.895 124.387 245.531 111.199 233.893C102.545 226.255 95.5445 217.012 90.5473 206.738C86.1923 197.784 76.5637 191.787 66.905 194.204Z" fill="#303030"/>
<rect x="58.5" y="198.5" width="26" height="26" rx="13" fill="#303030"/>
<path d="M71.0461 217.16C69.9901 217.16 69.0887 216.941 68.3421 216.504C67.6061 216.056 67.0994 215.416 66.8221 214.584L68.9021 213.672C68.9767 214.056 69.0994 214.376 69.2701 214.632C69.4407 214.877 69.6701 215.064 69.9581 215.192C70.2567 215.32 70.6087 215.384 71.0141 215.384C71.3767 215.384 71.6807 215.32 71.9261 215.192C72.1821 215.064 72.3794 214.883 72.5181 214.648C72.6567 214.413 72.7261 214.147 72.7261 213.848C72.7261 213.528 72.6621 213.267 72.5341 213.064C72.4167 212.861 72.2354 212.717 71.9901 212.632C71.7447 212.536 71.4354 212.488 71.0621 212.488C70.9234 212.488 70.7901 212.493 70.6621 212.504C70.5447 212.504 70.4114 212.515 70.2621 212.536V210.92C70.3474 210.931 70.4327 210.941 70.5181 210.952C70.6141 210.952 70.7101 210.952 70.8061 210.952C71.4034 210.952 71.8301 210.835 72.0861 210.6C72.3527 210.355 72.4861 209.965 72.4861 209.432C72.4861 208.995 72.3527 208.659 72.0861 208.424C71.8301 208.179 71.4621 208.056 70.9821 208.056C70.4701 208.056 70.0647 208.184 69.7661 208.44C69.4674 208.685 69.2594 209.064 69.1421 209.576L67.1741 208.84C67.3021 208.307 67.5474 207.848 67.9101 207.464C68.2834 207.08 68.7421 206.787 69.2861 206.584C69.8301 206.371 70.4327 206.264 71.0941 206.264C71.8834 206.264 72.5394 206.387 73.0621 206.632C73.5954 206.877 73.9954 207.213 74.2621 207.64C74.5394 208.067 74.6781 208.557 74.6781 209.112C74.6781 209.549 74.6087 209.923 74.4701 210.232C74.3421 210.531 74.1714 210.787 73.9581 211C73.7554 211.203 73.5421 211.357 73.3181 211.464C73.0941 211.571 72.8861 211.635 72.6941 211.656V211.704C72.9394 211.715 73.1901 211.768 73.4461 211.864C73.7021 211.949 73.9367 212.083 74.1501 212.264C74.3741 212.445 74.5554 212.68 74.6941 212.968C74.8327 213.245 74.9021 213.576 74.9021 213.96C74.9021 214.6 74.7314 215.165 74.3901 215.656C74.0594 216.136 73.6061 216.509 73.0301 216.776C72.4541 217.032 71.7927 217.16 71.0461 217.16Z" fill="white"/>
<rect x="58.5" y="198.5" width="26" height="26" rx="13" stroke="#555555" stroke-width="3"/>
<path d="M206.556 266.614C210.146 275.902 220.674 280.631 229.337 275.723C250.685 263.63 268.058 245.346 279.027 223.093C292.669 195.417 295.409 163.624 286.704 134.021C277.998 104.419 258.953 96.8851 232.5 81C206.366 65.3064 274.543 88.6967 247.049 95.2671C246.4 95.4224 245.662 95.4374 245.005 95.3158L238.469 94.1054C234.289 93.3313 240.548 86.9128 237.126 89.4365C234.03 91.7205 230.902 96.7011 233.462 99.5737C243.882 111.267 247.251 127.664 252.112 144.194C258.265 165.117 256.328 187.589 246.686 207.151C239.721 221.28 229.105 233.144 216.081 241.608C207.732 247.033 202.967 257.327 206.556 266.614Z" fill="#48A9A6"/>
<g clip-path="url(#clip1_178_2250)">
<rect x="212" y="248" width="23" height="23" rx="11.5" fill="#48A9A6"/>
<path d="M219.318 265V263.512C220.278 262.861 221.089 262.275 221.75 261.752C222.422 261.219 222.961 260.728 223.366 260.28C223.782 259.821 224.081 259.389 224.262 258.984C224.454 258.579 224.55 258.173 224.55 257.768C224.55 257.277 224.401 256.877 224.102 256.568C223.804 256.248 223.382 256.088 222.838 256.088C222.241 256.088 221.772 256.291 221.43 256.696C221.1 257.101 220.918 257.677 220.886 258.424L218.982 257.704C219.036 256.979 219.228 256.365 219.558 255.864C219.9 255.352 220.358 254.963 220.934 254.696C221.521 254.419 222.193 254.28 222.95 254.28C223.601 254.28 224.161 254.371 224.63 254.552C225.11 254.733 225.505 254.984 225.814 255.304C226.134 255.613 226.374 255.971 226.534 256.376C226.694 256.781 226.774 257.203 226.774 257.64C226.774 258.323 226.604 258.968 226.262 259.576C225.932 260.184 225.42 260.787 224.726 261.384C224.033 261.981 223.153 262.611 222.086 263.272V263.288C222.246 263.277 222.438 263.267 222.662 263.256C222.897 263.245 223.137 263.24 223.382 263.24C223.628 263.229 223.841 263.224 224.022 263.224H226.934V265H219.318Z" fill="white"/>
</g>
<rect x="210.5" y="246.5" width="26" height="26" rx="13" stroke="#358986" stroke-width="3"/>
<defs>
<clipPath id="clip0_178_2250">
<rect x="194.687" y="57.9222" width="23" height="23" rx="11.5" fill="white"/>
</clipPath>
<clipPath id="clip1_178_2250">
<rect x="212" y="248" width="23" height="23" rx="11.5" fill="white"/>
</clipPath>
</defs>
</svg>
