<svg width="116" height="32" viewBox="0 0 116 32" fill="none" xmlns="http://www.w3.org/2000/svg">
<path d="M16.7511 27.9994V23.7261H7.11067V5.19737H2.25627V27.9994H16.7511ZM22.2016 9.70992C23.6374 9.70992 24.7998 8.5476 24.7998 7.11179C24.7998 5.67598 23.6374 4.54784 22.2016 4.54784C20.8 4.54784 19.6035 5.67598 19.6035 7.11179C19.6035 8.5476 20.8 9.70992 22.2016 9.70992ZM24.3895 27.9994V11.4876H20.0479V27.9994H24.3895ZM34.6429 28.4096C39.2238 28.4096 41.7878 26.1192 41.7878 23.1108C41.7878 16.4445 32.0106 18.4957 32.0106 16.0343C32.0106 15.1113 33.0362 14.3934 34.6087 14.3934C36.6257 14.3934 38.5059 15.248 39.4973 16.3078L41.2408 13.3336C39.5999 12.0346 37.3778 11.0774 34.5745 11.0774C30.2329 11.0774 27.8057 13.5046 27.8057 16.2736C27.8057 22.7689 37.6171 20.5469 37.6171 23.2817C37.6171 24.3073 36.7282 25.0594 34.848 25.0594C32.7969 25.0594 30.3355 23.9313 29.139 22.8031L27.2587 25.8457C29.0022 27.4524 31.7713 28.4096 34.6429 28.4096ZM50.5244 28.4096C52.3363 28.4096 53.4986 27.931 54.1481 27.3499L53.2251 24.068C52.9858 24.3073 52.3704 24.5466 51.7209 24.5466C50.7637 24.5466 50.2167 23.7603 50.2167 22.7348V15.2822H53.5669V11.4876H50.2167V6.97504H45.8409V11.4876H43.1061V15.2822H45.8409V23.8971C45.8409 26.8371 47.4819 28.4096 50.5244 28.4096Z" fill="#48A9A6"/>
<path d="M97.8547 28.4097C100.419 28.4097 103.017 27.6235 104.658 26.1193L102.743 23.316C101.684 24.3416 99.7349 24.957 98.3333 24.957C95.5301 24.957 93.855 23.2135 93.5815 21.1281H105.854V20.1709C105.854 14.7696 102.504 11.0775 97.5812 11.0775C92.5559 11.0775 89.0347 14.9405 89.0347 19.7265C89.0347 25.0253 92.8294 28.4097 97.8547 28.4097ZM101.649 18.1882H93.5131C93.7182 16.5472 94.8805 14.5303 97.5812 14.5303C100.453 14.5303 101.547 16.6156 101.649 18.1882ZM111.079 28.3756C112.583 28.3756 113.848 27.1107 113.848 25.6065C113.848 24.1023 112.583 22.8374 111.079 22.8374C109.575 22.8374 108.31 24.1023 108.31 25.6065C108.31 27.1107 109.575 28.3756 111.079 28.3756Z" fill="#48A9A6"/>
<rect x="59.2505" y="3.96497" width="4.63787" height="24.6278" rx="2.31894" fill="url(#paint0_linear_85_827)"/>
<path d="M61.643 28.6158C60.3623 28.6158 59.3241 27.5776 59.3241 26.2969V26.2969C59.3241 25.0162 60.3623 23.978 61.643 23.978H83.3428C84.8853 23.978 86.1357 25.2284 86.1357 26.7708V28.6158H61.643Z" fill="url(#paint1_linear_85_827)"/>
<rect x="58.4373" y="6.26062" width="4.63787" height="20.8704" rx="2.31894" transform="rotate(-45 58.4373 6.26062)" fill="#48A9A6"/>
<rect x="84.7146" y="3.01404" width="4.63787" height="20.8704" rx="2.31894" transform="rotate(45 84.7146 3.01404)" fill="#48A9A6"/>
<path d="M82.4282 6.35763C82.4282 5.07692 83.4664 4.0387 84.7472 4.0387V4.0387C86.0279 4.0387 87.0661 5.07692 87.0661 6.35763V28.616H85.2211C83.6786 28.616 82.4282 27.3656 82.4282 25.8231V6.35763Z" fill="#48A9A6"/>
<defs>
<linearGradient id="paint0_linear_85_827" x1="61.4883" y1="1.88017" x2="62.1699" y2="28.1516" gradientUnits="userSpaceOnUse">
<stop stop-color="#48A9A6"/>
<stop offset="1" stop-color="#48A9A6" stop-opacity="0"/>
</linearGradient>
<linearGradient id="paint1_linear_85_827" x1="57.0544" y1="26.378" x2="85.6518" y2="25.5703" gradientUnits="userSpaceOnUse">
<stop stop-color="#48A9A6"/>
<stop offset="1" stop-color="#48A9A6" stop-opacity="0"/>
</linearGradient>
</defs>
</svg>
