<svg width="15" height="15" viewBox="0 0 15 15" fill="none" xmlns="http://www.w3.org/2000/svg">
<path d="M7.47998 3.40625C5.47998 3.40625 3.88623 5.03125 3.88623 7C3.88623 9 5.47998 10.5938 7.47998 10.5938C9.44873 10.5938 11.0737 9 11.0737 7C11.0737 5.03125 9.44873 3.40625 7.47998 3.40625ZM7.47998 9.34375C6.19873 9.34375 5.13623 8.3125 5.13623 7C5.13623 5.71875 6.16748 4.6875 7.47998 4.6875C8.76123 4.6875 9.79248 5.71875 9.79248 7C9.79248 8.3125 8.76123 9.34375 7.47998 9.34375ZM12.0425 3.28125C12.0425 2.8125 11.6675 2.4375 11.1987 2.4375C10.73 2.4375 10.355 2.8125 10.355 3.28125C10.355 3.75 10.73 4.125 11.1987 4.125C11.6675 4.125 12.0425 3.75 12.0425 3.28125ZM14.4175 4.125C14.355 3 14.105 2 13.2925 1.1875C12.48 0.375 11.48 0.125 10.355 0.0625C9.19873 0 5.72998 0 4.57373 0.0625C3.44873 0.125 2.47998 0.375 1.63623 1.1875C0.82373 2 0.57373 3 0.51123 4.125C0.44873 5.28125 0.44873 8.75 0.51123 9.90625C0.57373 11.0312 0.82373 12 1.63623 12.8438C2.47998 13.6562 3.44873 13.9062 4.57373 13.9688C5.72998 14.0312 9.19873 14.0312 10.355 13.9688C11.48 13.9062 12.48 13.6562 13.2925 12.8438C14.105 12 14.355 11.0312 14.4175 9.90625C14.48 8.75 14.48 5.28125 14.4175 4.125ZM12.9175 11.125C12.6987 11.75 12.1987 12.2188 11.605 12.4688C10.6675 12.8438 8.47998 12.75 7.47998 12.75C6.44873 12.75 4.26123 12.8438 3.35498 12.4688C2.72998 12.2188 2.26123 11.75 2.01123 11.125C1.63623 10.2188 1.72998 8.03125 1.72998 7C1.72998 6 1.63623 3.8125 2.01123 2.875C2.26123 2.28125 2.72998 1.8125 3.35498 1.5625C4.26123 1.1875 6.44873 1.28125 7.47998 1.28125C8.47998 1.28125 10.6675 1.1875 11.605 1.5625C12.1987 1.78125 12.6675 2.28125 12.9175 2.875C13.2925 3.8125 13.1987 6 13.1987 7C13.1987 8.03125 13.2925 10.2188 12.9175 11.125Z" fill="white"/>
</svg>
