<svg width="22" height="22" viewBox="0 0 22 22" fill="none" xmlns="http://www.w3.org/2000/svg">
<path d="M20.9258 9.19531C21.189 9.19531 21.4052 9.27991 21.5743 9.4491C21.7435 9.61829 21.8281 9.83447 21.8281 10.0977V11.9023C21.8281 12.1655 21.7435 12.3817 21.5743 12.5509C21.4052 12.7201 21.189 12.8047 20.9258 12.8047H12.8047V20.9258C12.8047 21.189 12.7201 21.4052 12.5509 21.5743C12.3817 21.7435 12.1655 21.8281 11.9023 21.8281H10.0977C9.83447 21.8281 9.61829 21.7435 9.4491 21.5743C9.27991 21.4052 9.19531 21.189 9.19531 20.9258V12.8047H1.07422C0.811035 12.8047 0.594849 12.7201 0.425659 12.5509C0.25647 12.3817 0.171875 12.1655 0.171875 11.9023V10.0977C0.171875 9.83447 0.25647 9.61829 0.425659 9.4491C0.594849 9.27991 0.811035 9.19531 1.07422 9.19531H9.19531V1.07422C9.19531 0.811035 9.27991 0.594849 9.4491 0.425659C9.61829 0.25647 9.83447 0.171875 10.0977 0.171875H11.9023C12.1655 0.171875 12.3817 0.25647 12.5509 0.425659C12.7201 0.594849 12.8047 0.811035 12.8047 1.07422V9.19531H20.9258Z" fill="white"/>
</svg>
